<?xml version="1.0" standalone="no"?>
<!DOCTYPE svg PUBLIC "-//W3C//DTD SVG 20010904//EN"
 "http://www.w3.org/TR/2001/REC-SVG-20010904/DTD/svg10.dtd">
<svg version="1.0" xmlns="http://www.w3.org/2000/svg"
 width="578.000000pt" height="573.000000pt" viewBox="0 0 578.000000 573.000000"
 preserveAspectRatio="xMidYMid meet">
<metadata>
Created by potrace 1.13, written by Peter Selinger 2001-2015
</metadata>
<g transform="translate(0.000000,573.000000) scale(0.100000,-0.100000)"
fill="#000000" stroke="none">
<path d="M5435 5263 c-543 -70 -1016 -252 -1497 -575 -49 -32 -88 -62 -88 -66
1 -4 44 -27 97 -52 342 -159 577 -423 665 -745 54 -200 21 -520 -65 -629 -82
-104 -291 -234 -474 -295 -178 -59 -294 -76 -528 -76 -179 0 -227 4 -323 23
-579 117 -931 470 -932 935 l-1 82 -38 -81 c-83 -174 -213 -321 -389 -438
-310 -207 -649 -257 -900 -135 -78 38 -181 132 -229 211 -20 32 -38 57 -40 55
-10 -10 -43 -196 -53 -297 -27 -287 40 -552 198 -775 161 -229 473 -448 869
-611 49 -20 90 -38 91 -39 2 -2 -5 -43 -16 -92 -35 -150 -52 -291 -59 -478
-14 -445 90 -686 297 -685 77 1 152 58 191 146 10 22 37 110 59 195 43 159 84
262 119 293 18 17 28 17 128 6 267 -29 480 -68 646 -117 73 -22 91 -31 98 -51
6 -15 7 -150 4 -336 -5 -242 -3 -322 7 -361 l13 -50 73 -14 c65 -12 80 -12
140 3 123 30 211 112 319 296 28 47 79 134 114 194 35 60 81 128 102 152 45
51 96 157 130 274 45 152 52 198 51 375 0 148 -3 178 -22 235 -26 76 -27 90
-8 90 8 0 54 20 103 44 307 154 475 466 538 1002 9 71 20 259 26 419 l11 290
92 95 c212 219 342 437 514 866 111 276 134 356 136 474 1 81 -2 102 -23 143
-21 43 -91 110 -110 106 -3 -1 -19 -4 -36 -6z"/>
<path d="M1659 5183 c-50 -8 -133 -67 -186 -133 -112 -139 -294 -479 -396
-740 -69 -177 -68 -183 4 -103 229 255 567 473 899 582 69 23 145 46 169 52
l44 11 -74 75 c-192 194 -340 277 -460 256z"/>
<path d="M2605 4879 c-77 -11 -187 -45 -245 -74 -39 -20 -42 -24 -25 -31 67
-24 97 -90 115 -257 9 -86 30 -167 44 -167 2 0 16 20 30 44 57 97 184 196 336
261 75 32 187 69 335 110 l60 17 -35 19 c-133 71 -413 107 -615 78z"/>
<path d="M3123 4203 c-11 -37 -39 -120 -62 -183 -22 -63 -43 -140 -46 -170
l-5 -55 40 80 c70 141 121 325 102 374 -6 18 -11 11 -29 -46z"/>
</g>
</svg>
