<?xml version="1.0" standalone="no"?>
<!DOCTYPE svg PUBLIC "-//W3C//DTD SVG 20010904//EN"
 "http://www.w3.org/TR/2001/REC-SVG-20010904/DTD/svg10.dtd">
<svg version="1.0" xmlns="http://www.w3.org/2000/svg"
 width="448.000000pt" height="154.000000pt" viewBox="0 0 448.000000 154.000000"
 preserveAspectRatio="xMidYMid meet">
<metadata>
Created by potrace 1.13, written by Peter Selinger 2001-2015
</metadata>
<g transform="translate(0.000000,154.000000) scale(0.100000,-0.100000)"
fill="#000000" stroke="none">
<path d="M4170 1413 c-147 -6 -446 -35 -610 -59 -160 -22 -472 -81 -545 -103
l-30 -8 40 -8 c350 -64 524 -136 565 -234 15 -36 1 -88 -33 -119 -41 -37 -201
-78 -407 -104 -166 -21 -681 -17 -850 5 -166 23 -303 57 -389 97 -78 37 -108
62 -130 112 l-17 37 -44 -29 c-24 -16 -91 -44 -149 -64 -321 -106 -799 -119
-983 -25 -20 10 -42 19 -48 19 -14 0 -49 -77 -50 -108 0 -46 39 -102 101 -142
110 -71 298 -125 619 -179 95 -16 173 -31 175 -33 2 -2 -7 -26 -20 -53 -56
-113 -34 -208 57 -254 39 -19 64 -23 133 -23 110 -1 151 17 205 88 66 88 67
88 324 75 219 -12 409 -27 434 -36 9 -3 12 -29 10 -94 -2 -59 1 -94 9 -102 8
-8 49 -11 120 -11 138 1 203 20 348 107 60 36 115 65 121 65 20 0 93 59 118
97 32 46 34 100 6 136 l-20 25 68 11 c319 55 444 160 461 390 l6 74 70 24 c97
32 225 98 299 151 146 108 226 192 212 227 -6 16 -51 40 -86 46 -14 3 -54 3
-90 2z"/>
<path d="M1170 1366 c-93 -33 -216 -108 -318 -194 -29 -24 -51 -46 -49 -48 2
-2 43 10 93 27 178 61 434 114 684 142 l115 13 -80 27 c-192 64 -330 74 -445
33z"/>
<path d="M1876 1300 c-61 -10 -85 -20 -47 -20 27 0 71 -42 71 -68 0 -38 25
-46 72 -24 77 37 246 70 453 88 67 6 76 8 55 17 -33 13 -527 18 -604 7z"/>
</g>
</svg>
